<?xml version="1.0" encoding="utf-8"?>
<!-- Generator: Adobe Illustrator 27.5.0, SVG Export Plug-In . SVG Version: 6.00 Build 0)  -->
<svg version="1.1" xmlns="http://www.w3.org/2000/svg" xmlns:xlink="http://www.w3.org/1999/xlink" x="0px" y="0px"
	 viewBox="0 0 500 500" style="enable-background:new 0 0 500 500;" xml:space="preserve">
<g id="Background_Complete">
	<g>
		<rect x="416.779" y="398.494" style="fill:#EBEBEB;" width="33.122" height="0.25"/>
		<rect x="322.527" y="401.208" style="fill:#EBEBEB;" width="8.693" height="0.25"/>
		<rect x="396.586" y="389.208" style="fill:#EBEBEB;" width="19.192" height="0.25"/>
		<rect x="52.459" y="390.888" style="fill:#EBEBEB;" width="43.193" height="0.25"/>
		<rect x="104.556" y="390.888" style="fill:#EBEBEB;" width="6.333" height="0.25"/>
		<rect x="131.471" y="395.111" style="fill:#EBEBEB;" width="93.676" height="0.25"/>
		<path style="fill:#EBEBEB;" d="M237.014,337.8H43.915c-3.147,0-5.708-2.561-5.708-5.708V60.66c0-3.147,2.561-5.708,5.708-5.708
			h193.099c3.146,0,5.707,2.561,5.707,5.708v271.432C242.721,335.239,240.16,337.8,237.014,337.8z M43.915,55.203
			c-3.01,0-5.458,2.448-5.458,5.458v271.432c0,3.01,2.448,5.458,5.458,5.458h193.099c3.009,0,5.457-2.448,5.457-5.458V60.66
			c0-3.009-2.448-5.458-5.457-5.458H43.915z"/>
		<path style="fill:#EBEBEB;" d="M453.31,337.8H260.212c-3.147,0-5.707-2.561-5.707-5.708V60.66c0-3.147,2.561-5.708,5.707-5.708
			H453.31c3.148,0,5.708,2.561,5.708,5.708v271.432C459.019,335.239,456.458,337.8,453.31,337.8z M260.212,55.203
			c-3.009,0-5.457,2.448-5.457,5.458v271.432c0,3.01,2.448,5.458,5.457,5.458H453.31c3.01,0,5.458-2.448,5.458-5.458V60.66
			c0-3.009-2.448-5.458-5.458-5.458H260.212z"/>
		<rect y="382.398" style="fill:#EBEBEB;" width="500" height="0.25"/>
	</g>
	<g>
		<path style="fill:#F5F5F5;" d="M170.901,359.402h23.17l-12.181-99.206c-0.516-4.2-4.338-7.604-8.538-7.604h-7.963H72.252
			l14.821,106.81H170.901z"/>
		<path style="fill:#F0F0F0;" d="M97.414,359.402h-23.17l-12.181-99.206c-0.516-4.2,2.471-7.604,6.67-7.604h7.963
			c4.2,0,8.022,3.404,8.537,7.604L97.414,359.402z"/>
		<g>
			<path style="fill:#E6E6E6;" d="M105.951,359.285l-4.198-47.984c-0.188-2.143-1.843-3.866-3.978-4.138l-1.726-0.22
				c-2.863-0.365-5.084-2.676-5.336-5.551l-0.766-8.749c-0.314-3.586,2.513-6.67,6.112-6.67H57.337c-3.599,0-6.426,3.084-6.112,6.67
				l0.766,8.749c0.251,2.875,2.473,5.186,5.335,5.551l1.727,0.22c2.134,0.272,3.79,1.995,3.977,4.138l4.198,47.984
				c0.306,3.498,3.235,6.183,6.747,6.183h38.723C109.186,365.467,106.257,362.783,105.951,359.285z"/>
		</g>
		<path style="fill:#E6E6E6;" d="M212.514,299.289c0.659-7.535,6.969-13.317,14.533-13.317H208.31h-14.975
			c-7.564,0-13.874,5.782-14.533,13.317l-3.328,38.037h33.712L212.514,299.289z"/>
		<path style="fill:#F0F0F0;" d="M242.021,285.972h-14.975c-7.564,0-13.873,5.782-14.533,13.317l-3.328,38.037h-80.29l-3.328-38.037
			c-0.659-7.535-6.969-13.317-14.533-13.317H96.06c-3.6,0-6.426,3.084-6.112,6.67l0.766,8.749c0.252,2.875,2.473,5.186,5.336,5.551
			l1.726,0.22c2.134,0.272,3.79,1.995,3.977,4.138l4.198,47.984c0.306,3.498,3.235,6.183,6.747,6.183h112.686
			c3.512,0,6.441-2.684,6.747-6.183l4.198-47.984c0.188-2.143,1.843-3.866,3.977-4.138l1.727-0.22
			c2.863-0.365,5.084-2.676,5.336-5.552l0.765-8.749C248.447,289.056,245.621,285.972,242.021,285.972z"/>
	</g>
	<g>
		<g>
			<circle style="fill:#F5F5F5;" cx="140.928" cy="148.338" r="44.387"/>
			<circle style="fill:#FAFAFA;" cx="140.928" cy="148.338" r="37.643"/>
			<path style="fill:#E6E6E6;" d="M140.928,110.696c-0.593,0-1.181,0.018-1.767,0.045c19.969,0.923,35.875,17.401,35.875,37.598
				c0,20.197-15.907,36.675-35.875,37.598c0.586,0.027,1.175,0.045,1.767,0.045c20.79,0,37.643-16.853,37.643-37.643
				S161.717,110.696,140.928,110.696z"/>
			<path style="fill:#F0F0F0;" d="M140.941,185.937c-0.005,0-0.009,0-0.014,0c0.953-0.044,1.894-0.135,2.827-0.248v-34.522h32.932
				c0.07-0.935,0.116-1.876,0.116-2.828c0-0.952-0.047-1.893-0.116-2.827h-32.932v-34.522c-0.934-0.114-1.874-0.204-2.827-0.248
				c0.001,0,0.002,0,0.003,0H138.1v34.771h-34.77v5.655h34.77v34.771H140.941z"/>
			<g>
				<rect x="135.272" y="110.74" style="fill:#E6E6E6;" width="2.828" height="34.771"/>
				<rect x="135.272" y="151.166" style="fill:#E6E6E6;" width="2.828" height="34.771"/>
			</g>
		</g>
		<g>
			<circle style="fill:#F5F5F5;" cx="359.072" cy="148.338" r="44.387"/>
			<circle style="fill:#FAFAFA;" cx="359.072" cy="148.338" r="37.643"/>
			<path style="fill:#E6E6E6;" d="M359.072,110.696c-0.593,0-1.181,0.018-1.767,0.045c19.969,0.923,35.875,17.401,35.875,37.598
				c0,20.197-15.907,36.675-35.875,37.598c0.586,0.027,1.175,0.045,1.767,0.045c20.79,0,37.643-16.853,37.643-37.643
				S379.862,110.696,359.072,110.696z"/>
			<path style="fill:#F0F0F0;" d="M359.086,185.937c-0.004,0-0.009,0-0.014,0c0.953-0.044,1.894-0.135,2.828-0.248v-34.522h32.932
				c0.069-0.935,0.116-1.876,0.116-2.828c0-0.952-0.047-1.893-0.116-2.827H361.9v-34.522c-0.934-0.114-1.874-0.204-2.828-0.248
				c0.001,0,0.002,0,0.003,0h-2.831v34.771h-34.77v5.655h34.77v34.771H359.086z"/>
			<g>
				<rect x="353.417" y="110.74" style="fill:#E6E6E6;" width="2.828" height="34.771"/>
				<rect x="353.417" y="151.166" style="fill:#E6E6E6;" width="2.828" height="34.771"/>
			</g>
		</g>
	</g>
	<g>
		
			<rect x="282.555" y="328.24" transform="matrix(-1 -1.224647e-16 1.224647e-16 -1 641.9784 683.0139)" style="fill:#EBEBEB;" width="76.869" height="26.534"/>
		
			<rect x="282.555" y="354.774" transform="matrix(-1 -1.224647e-16 1.224647e-16 -1 641.9784 736.0818)" style="fill:#EBEBEB;" width="76.869" height="26.534"/>
		
			<rect x="362.108" y="328.24" transform="matrix(-1 -1.224647e-16 1.224647e-16 -1 801.0859 683.0139)" style="fill:#EBEBEB;" width="76.869" height="26.534"/>
		
			<rect x="362.108" y="354.774" transform="matrix(-1 -1.224647e-16 1.224647e-16 -1 801.0859 736.0818)" style="fill:#EBEBEB;" width="76.869" height="26.534"/>
		<g>
			<polygon style="fill:#F0F0F0;" points="409.767,354.774 400.203,328.24 414.922,328.24 424.486,354.774 			"/>
			<polygon style="fill:#F0F0F0;" points="393.079,328.24 396.312,328.24 405.876,354.774 402.643,354.774 			"/>
		</g>
		<g>
			<polygon style="fill:#F0F0F0;" points="419.331,381.308 409.767,354.774 424.486,354.774 434.051,381.308 			"/>
			<polygon style="fill:#F0F0F0;" points="402.643,354.774 405.876,354.774 415.44,381.308 412.207,381.308 			"/>
		</g>
		<g>
			<polygon style="fill:#F0F0F0;" points="299.825,354.774 290.261,328.24 304.98,328.24 314.544,354.774 			"/>
			<polygon style="fill:#F0F0F0;" points="283.137,328.24 286.37,328.24 295.934,354.774 292.701,354.774 			"/>
		</g>
		<g>
			<polygon style="fill:#F0F0F0;" points="309.389,381.308 299.825,354.774 314.544,354.774 324.108,381.308 			"/>
			<polygon style="fill:#F0F0F0;" points="292.701,354.774 295.934,354.774 305.498,381.308 302.265,381.308 			"/>
		</g>
		
			<rect x="399.201" y="292.544" transform="matrix(-1.836970e-16 1 -1 -1.836970e-16 731.5215 -69.5644)" style="fill:#E0E0E0;" width="2.684" height="76.869"/>
		
			<rect x="399.201" y="318.871" transform="matrix(-1.836970e-16 1 -1 -1.836970e-16 757.8482 -43.2377)" style="fill:#E0E0E0;" width="2.684" height="76.869"/>
		<g>
			<path style="fill:#E0E0E0;" d="M398.577,344.904c-0.637,0-1.153-0.516-1.153-1.153s0.516-1.153,1.153-1.153
				c0.323,0,3.61,0,3.933,0c0.637,0,1.153,0.516,1.153,1.153s-0.516,1.153-1.153,1.153
				C402.161,344.904,398.925,344.904,398.577,344.904z"/>
			<path style="fill:#F5F5F5;" d="M398.577,344.497c-0.637,0-1.153-0.516-1.153-1.153c0-0.637,0.516-1.153,1.153-1.153
				c0.323,0,3.61,0,3.933,0c0.637,0,1.153,0.516,1.153,1.153c0,0.637-0.516,1.153-1.153,1.153
				C402.161,344.497,398.925,344.497,398.577,344.497z"/>
		</g>
		<g>
			<path style="fill:#E0E0E0;" d="M398.577,369.397c-0.637,0-1.153-0.516-1.153-1.153c0-0.637,0.516-1.153,1.153-1.153
				c0.323,0,3.61,0,3.933,0c0.637,0,1.153,0.516,1.153,1.153c0,0.637-0.516,1.153-1.153,1.153
				C402.161,369.397,398.925,369.397,398.577,369.397z"/>
			<path style="fill:#F5F5F5;" d="M398.577,368.991c-0.637,0-1.153-0.516-1.153-1.153c0-0.637,0.516-1.153,1.153-1.153
				c0.323,0,3.61,0,3.933,0c0.637,0,1.153,0.516,1.153,1.153c0,0.637-0.516,1.153-1.153,1.153
				C402.161,368.991,398.925,368.991,398.577,368.991z"/>
		</g>
		<path style="fill:#F5F5F5;" d="M360.766,327.051v55.416h1.342h1.342h74.185h1.342h1.342v-55.416H360.766z M363.451,356.177h74.185
			v23.606h-74.185V356.177z M363.451,329.886h74.185v23.606h-74.185V329.886z"/>
		
			<rect x="319.647" y="292.544" transform="matrix(-1.836970e-16 1 -1 -1.836970e-16 651.9678 9.9894)" style="fill:#E0E0E0;" width="2.684" height="76.869"/>
		
			<rect x="319.647" y="318.871" transform="matrix(-1.836970e-16 1 -1 -1.836970e-16 678.2944 36.3161)" style="fill:#E0E0E0;" width="2.684" height="76.869"/>
		<g>
			<path style="fill:#E0E0E0;" d="M319.023,344.904c-0.637,0-1.153-0.516-1.153-1.153s0.516-1.153,1.153-1.153
				c0.323,0,3.61,0,3.933,0c0.637,0,1.153,0.516,1.153,1.153s-0.516,1.153-1.153,1.153
				C322.607,344.904,319.371,344.904,319.023,344.904z"/>
			<path style="fill:#F5F5F5;" d="M319.023,344.497c-0.637,0-1.153-0.516-1.153-1.153c0-0.637,0.516-1.153,1.153-1.153
				c0.323,0,3.61,0,3.933,0c0.637,0,1.153,0.516,1.153,1.153c0,0.637-0.516,1.153-1.153,1.153
				C322.607,344.497,319.371,344.497,319.023,344.497z"/>
		</g>
		<g>
			<path style="fill:#E0E0E0;" d="M319.023,369.397c-0.637,0-1.153-0.516-1.153-1.153c0-0.637,0.516-1.153,1.153-1.153
				c0.323,0,3.61,0,3.933,0c0.637,0,1.153,0.516,1.153,1.153c0,0.637-0.516,1.153-1.153,1.153
				C322.607,369.397,319.371,369.397,319.023,369.397z"/>
			<path style="fill:#F5F5F5;" d="M319.023,368.991c-0.637,0-1.153-0.516-1.153-1.153c0-0.637,0.516-1.153,1.153-1.153
				c0.323,0,3.61,0,3.933,0c0.637,0,1.153,0.516,1.153,1.153c0,0.637-0.516,1.153-1.153,1.153
				C322.607,368.991,319.371,368.991,319.023,368.991z"/>
		</g>
		<path style="fill:#F5F5F5;" d="M281.212,327.051v55.416h1.342h1.342h74.185h1.342h1.342v-55.416H281.212z M283.897,356.177h74.185
			v23.606h-74.185V356.177z M283.897,329.886h74.185v23.606h-74.185V329.886z"/>
	</g>
	<g>
		<path style="fill:#E0E0E0;" d="M395.011,322.667h-11.872L380.394,311h-4.75l-2.745,11.667h-11.872
			c-2.03,0-3.676,1.646-3.676,3.675v0.709h41.335v-0.709C398.687,324.312,397.041,322.667,395.011,322.667z"/>
		<g>
			<rect x="325.446" y="248.94" style="fill:#E0E0E0;" width="105.146" height="68.06"/>
			<rect x="327.446" y="250.94" style="fill:#F5F5F5;" width="101.146" height="61.06"/>
			<polygon style="fill:#FAFAFA;" points="383.202,312 420.414,312 398.405,250.94 361.193,250.94 			"/>
			<polygon style="fill:#FAFAFA;" points="365.192,312 373.366,312 351.358,250.94 343.184,250.94 			"/>
		</g>
	</g>
	<g>
		<polygon style="fill:#F5F5F5;" points="220.867,382.523 115.635,382.523 115.635,364.467 223.867,364.467 		"/>
		<polygon style="fill:#E0E0E0;" points="124.188,382.648 77.492,382.648 75.492,364.467 122.188,364.467 		"/>
	</g>
</g>
<g id="Background_Simple" style="display:none;">
	<g style="display:inline;">
		<path style="fill:#407BFF;" d="M251.54,168.487c-25.846-6.463-40.881-42.838-89.368-58.05
			c-30.127-9.452-94.938,5.385-102.678,73.546c-6.655,58.604,47.088,152.483,146.412,176.903
			c98.875,24.31,200.628-7.951,228.174-89.547c19.014-56.323-18.064-108.613-61.797-116.334
			C313.348,144.601,281.005,175.855,251.54,168.487z"/>
		<path style="opacity:0.9;fill:#FFFFFF;" d="M251.54,168.487c-25.846-6.463-40.881-42.838-89.368-58.05
			c-30.127-9.452-94.938,5.385-102.678,73.546c-6.655,58.604,47.088,152.483,146.412,176.903
			c98.875,24.31,200.628-7.951,228.174-89.547c19.014-56.323-18.064-108.613-61.797-116.334
			C313.348,144.601,281.005,175.855,251.54,168.487z"/>
	</g>
</g>
<g id="Shadow">
	<ellipse id="_x3C_Path_x3E__1_" style="fill:#F5F5F5;" cx="245.178" cy="412.391" rx="193.889" ry="11.323"/>
</g>
<g id="Character">
	<g>
		<g>
			<g>
				<polygon style="fill:#263238;" points="375.182,410.967 370.388,410.967 369.338,337.893 376.232,337.893 				"/>
				<polygon style="opacity:0.5;fill:#FFFFFF;" points="375.182,410.967 370.388,410.967 369.338,337.893 376.232,337.893 				"/>
			</g>
			<g>
				<polygon style="fill:#263238;" points="332.878,410.967 328.085,410.967 327.035,337.893 333.928,337.893 				"/>
				<polygon style="opacity:0.5;fill:#FFFFFF;" points="332.878,410.967 328.085,410.967 327.035,337.893 333.928,337.893 				"/>
			</g>
			<g>
				<polygon style="fill:#263238;" points="323.061,410.967 318.268,410.967 317.218,337.893 324.112,337.893 				"/>
				<polygon style="opacity:0.5;fill:#FFFFFF;" points="323.061,410.967 318.268,410.967 317.218,337.893 324.112,337.893 				"/>
			</g>
			<g>
				<polygon style="fill:#263238;" points="280.758,410.967 275.965,410.967 274.915,337.893 281.808,337.893 				"/>
				<polygon style="opacity:0.5;fill:#FFFFFF;" points="280.758,410.967 275.965,410.967 274.915,337.893 281.808,337.893 				"/>
			</g>
			<g>
				<path style="fill:#407BFF;" d="M352.2,339.567h-77.752c-3.538,0-6.406-2.868-6.406-6.406v-8.538
					c0-3.538,2.868-6.406,6.406-6.406h68.846l5.93-56.422c0.706-6.714,6.72-12.156,13.434-12.156h28.887l-6.895,21.066l-6.3,47.163
					l-4.434,13.18L352.2,339.567z"/>
				<path style="opacity:0.2;" d="M352.2,339.567h-77.752c-3.538,0-6.406-2.868-6.406-6.406v-8.538c0-3.538,2.868-6.406,6.406-6.406
					h68.846l5.93-56.422c0.706-6.714,6.72-12.156,13.434-12.156h28.887l-6.895,21.066l-6.3,47.163l-4.434,13.18L352.2,339.567z"/>
			</g>
			<path style="fill:#407BFF;" d="M393.936,249.639h-5.765c-6.714,0-12.728,5.442-13.434,12.156l-5.93,56.422h-42.413
				c-3.538,0-6.406,2.868-6.406,6.406v8.538c0,3.538,2.868,6.406,6.406,6.406h51.319c4.033,0,7.415-3.045,7.837-7.056l6.721-63.942
				c5.421,0,10.257-4.558,10.504-10.051C402.993,253.626,398.833,249.639,393.936,249.639z"/>
		</g>
		<g>
			<g>
				<polygon style="fill:#EBB376;" points="282.419,380.778 285.752,402.535 292.618,401.948 291.66,379.987 				"/>
				<g>
					<path style="fill:#263238;" d="M292.862,393.441c0,0,0.323,5.616,1.678,8.415c1.304,2.694,3.221,6.519-1.354,6.93
						c-2.693,0.242-7.416,1.36-12.583,1.861c-3.57,0.346-8.46,0.032-8.633-1.888c-0.197-2.191,12.462-6.783,12.405-8.886
						c-0.057-2.103-0.617-5.748-0.617-5.748L292.862,393.441z"/>
					<path style="opacity:0.1;fill:#FFFFFF;" d="M292.862,393.441c0,0,0.323,5.616,1.678,8.415c1.304,2.694,3.221,6.519-1.354,6.93
						c-2.693,0.242-7.416,1.36-12.583,1.861c-3.57,0.346-8.46,0.032-8.633-1.888c-0.197-2.191,12.462-6.783,12.405-8.886
						c-0.057-2.103-0.617-5.748-0.617-5.748L292.862,393.441z"/>
				</g>
				<g>
					<path style="fill:#407BFF;" d="M327.191,277.267l-1.865,15.487c0,0-52.828,4.638-55.832,17.85
						c-2.855,12.56,12.735,76.322,12.735,76.322l10.555-1.05c0,0,1.465-49.304-3.15-66.893c0,0,40.16-0.301,53.542,0
						c6.034,0.136,21.394-0.067,17.588-17.567c-4.345-19.976-8.937-24.15-8.937-24.15l-0.152-8.761h-23.98L327.191,277.267z"/>
					<path style="opacity:0.2;fill:#FFFFFF;" d="M327.191,277.267l-1.865,15.487c0,0-52.828,4.638-55.832,17.85
						c-2.855,12.56,12.735,76.322,12.735,76.322l10.555-1.05c0,0,1.465-49.304-3.15-66.893c0,0,40.16-0.301,53.542,0
						c6.034,0.136,21.394-0.067,17.588-17.567c-4.345-19.976-8.937-24.15-8.937-24.15l-0.152-8.761h-23.98L327.191,277.267z"/>
				</g>
				<g>
					<path style="fill:#407BFF;" d="M281.209,387.204l0.885,2.583c0.165,0.481,0.637,0.787,1.143,0.74l9.213-0.845
						c0.541-0.05,0.966-0.487,0.999-1.029l0.166-2.679c0.042-0.674-0.528-1.227-1.2-1.165l-10.264,0.941
						C281.44,385.815,280.978,386.529,281.209,387.204z"/>
					<path style="opacity:0.6;fill:#FFFFFF;" d="M281.209,387.204l0.885,2.583c0.165,0.481,0.637,0.787,1.143,0.74l9.213-0.845
						c0.541-0.05,0.966-0.487,0.999-1.029l0.166-2.679c0.042-0.674-0.528-1.227-1.2-1.165l-10.264,0.941
						C281.44,385.815,280.978,386.529,281.209,387.204z"/>
				</g>
			</g>
			<g>
				<polygon style="fill:#EBB376;" points="302.663,380.342 304.129,402.305 311.019,402.305 311.938,380.342 				"/>
				<path style="fill:#263238;" d="M311.812,395.655c0,0-0.18,5.622,0.919,8.531c1.057,2.8,2.625,6.781-1.969,6.781
					c-2.704,0-7.487,0.061-12.605-0.318c-3.577-0.264-8.523,0.321-8.523-1.607c0-2.2,13.383-5.771,13.515-7.871
					c0.131-2.1,0-5.644,0-5.644L311.812,395.655z"/>
				<g>
					<path style="fill:#407BFF;" d="M335.457,277.267l-1.684,15.487c0,0-32.859,4.462-38.134,12.337s7.113,85.313,7.113,85.313
						h9.188c6.563-43.05,3.15-71.487,3.15-71.487s14.962,0,41.212,0s2.888-41.65,2.888-41.65l0.097-9.199l-24.284,1.4
						L335.457,277.267z"/>
					<path style="opacity:0.3;fill:#FFFFFF;" d="M335.457,277.267l-1.684,15.487c0,0-32.859,4.462-38.134,12.337
						s7.113,85.313,7.113,85.313h9.188c6.563-43.05,3.15-71.487,3.15-71.487s14.962,0,41.212,0s2.888-41.65,2.888-41.65l0.097-9.199
						l-24.284,1.4L335.457,277.267z"/>
				</g>
				<g>
					<path style="fill:#407BFF;" d="M301.074,388.897l0.69,2.837c0.11,0.453,0.515,0.771,0.981,0.771h9.154
						c0.475,0,0.886-0.332,0.987-0.796l0.613-2.837c0.136-0.629-0.343-1.223-0.987-1.223h-10.458
						C301.401,387.649,300.92,388.261,301.074,388.897z"/>
					<path style="opacity:0.6;fill:#FFFFFF;" d="M301.074,388.897l0.69,2.837c0.11,0.453,0.515,0.771,0.981,0.771h9.154
						c0.475,0,0.886-0.332,0.987-0.796l0.613-2.837c0.136-0.629-0.343-1.223-0.987-1.223h-10.458
						C301.401,387.649,300.92,388.261,301.074,388.897z"/>
				</g>
			</g>
			<g>
				<path style="fill:#EBB376;" d="M288.271,268.445l-7.445,1.444l-7.003-2.051c-1.943-0.278-3.889,0.488-5.207,2.049l0,0
					c-1,1.184-1.554,2.726-1.554,4.325v0.27h14.391l7.805-1.05L288.271,268.445z"/>
				<g>
					<path style="fill:#407BFF;" d="M328.475,225.408c-0.214-1.554-1.913-2.186-2.979-1.136c-2.394,2.358-5.843,5.132-7.454,19.99
						c-2.076,19.145-33.966,23.897-33.966,23.897l1.525,7.008c0,0,23.517,0.804,33.265-9.355
						C331.391,252.758,329.545,233.171,328.475,225.408z"/>
					<path style="opacity:0.2;fill:#FFFFFF;" d="M328.475,225.408c-0.214-1.554-1.913-2.186-2.979-1.136
						c-2.394,2.358-5.843,5.132-7.454,19.99c-2.076,19.145-33.966,23.897-33.966,23.897l1.525,7.008c0,0,23.517,0.804,33.265-9.355
						C331.391,252.758,329.545,233.171,328.475,225.408z"/>
				</g>
				<path style="fill:#263238;" d="M357.088,194.501c-2.887-19.372-19.199-12.392-19.199-12.392
					c-10.536,3.805-7.007,16.888-7.037,24.034c-0.03,7.146-0.897,9.568-0.897,9.568c1.211-0.269,2.344-0.505,3.434-0.723l0.379-2.23
					l0.661,2.026c8.858-1.696,13.642-1.675,16.221-1.138c0.49-0.893,1.199-2.407,1.546-4.212c0,0,1.267,0.821,0.025,4.695
					c1.531,0.694,1.454,1.582,1.454,1.582S359.976,213.874,357.088,194.501z"/>
				<g>
					<path style="fill:#407BFF;" d="M367.11,223.158l-38.09-0.453c-1.837-0.022-3.427,1.286-3.754,3.094
						c-4.5,24.88-1.428,23.993-1.428,23.993l1.925,30.45h4.259c2.571,0,4.784-1.815,5.289-4.336l0.428-2.139l1.129,2.988
						c0.793,2.099,2.802,3.487,5.045,3.487h19.449c-2.263-23.385,5.147-45.946,7.732-54.369
						C369.506,224.532,368.513,223.175,367.11,223.158z"/>
					<path style="opacity:0.4;fill:#FFFFFF;" d="M367.11,223.158l-38.09-0.453c-1.837-0.022-3.427,1.286-3.754,3.094
						c-4.5,24.88-1.428,23.993-1.428,23.993l1.925,30.45h4.259c2.571,0,4.784-1.815,5.289-4.336l0.428-2.139l1.129,2.988
						c0.793,2.099,2.802,3.487,5.045,3.487h19.449c-2.263-23.385,5.147-45.946,7.732-54.369
						C369.506,224.532,368.513,223.175,367.11,223.158z"/>
				</g>
				<g>
					<path style="fill:#407BFF;" d="M283.038,268.064l1.412,7.378c0.1,0.521,0.566,0.891,1.096,0.87l1.426-0.058
						c0.637-0.026,1.111-0.598,1.017-1.228l-1.167-7.86c-0.097-0.655-0.759-1.066-1.39-0.863l-1.671,0.539
						C283.247,267.009,282.937,267.532,283.038,268.064z"/>
					<path style="opacity:0.6;fill:#FFFFFF;" d="M283.038,268.064l1.412,7.378c0.1,0.521,0.566,0.891,1.096,0.87l1.426-0.058
						c0.637-0.026,1.111-0.598,1.017-1.228l-1.167-7.86c-0.097-0.655-0.759-1.066-1.39-0.863l-1.671,0.539
						C283.247,267.009,282.937,267.532,283.038,268.064z"/>
				</g>
				<path style="fill:#EBB376;" d="M348.968,204.663c-0.556,5.095-0.741,14.36,3.057,17.398c0,0-1.445,5.144-11.217,6.106
					c-6.94-3.063-4.356-4.753-4.356-4.753c5.466-1.853,6.016-5.957,4.756-9.765L348.968,204.663z"/>
				<path style="opacity:0.1;" d="M348.14,210.33l-2.012-0.525l-2.48,1.02l-2.439,2.825c0.334,1.01,0.535,2.039,0.557,3.043
					C347.148,215.805,348.14,210.33,348.14,210.33z"/>
				<path style="fill:#EBB376;" d="M352.581,193.387c0.243,8.414,0.531,11.969-3.303,16.644c-5.768,7.037-16.151,5.502-18.91-2.668
					c-2.481-7.353-2.468-19.868,5.413-23.942c5.617-2.94,12.553-0.77,15.493,4.847C352.102,189.849,352.55,191.602,352.581,193.387z
					"/>
				<path style="fill:#EBB376;" d="M355.161,199.824c-0.323,1.595-1.267,2.997-2.624,3.896c-1.808,1.176-3.355-0.282-3.394-2.327
					c-0.035-1.834,0.864-4.665,2.941-5.022c1.52-0.214,2.926,0.845,3.139,2.365C355.275,199.099,355.253,199.469,355.161,199.824z"
					/>
				<path style="fill:#D58745;" d="M334.566,198.556c-0.464,1.61-1.147,3.148-2.03,4.572c0.745,0.442,1.648,0.531,2.465,0.243
					L334.566,198.556z"/>
				<path style="fill:#2E353A;" d="M340.221,193.745c0.055-0.019,0.106-0.05,0.147-0.091c0.125-0.135,0.117-0.346-0.019-0.471
					c-0.002-0.001-0.003-0.003-0.005-0.005c-0.913-0.884-2.2-1.267-3.448-1.027c-0.175,0.051-0.28,0.23-0.238,0.408
					c0.046,0.175,0.223,0.281,0.399,0.24c1.034-0.181,2.091,0.145,2.844,0.876C339.988,193.753,340.109,193.779,340.221,193.745z"/>
				<path style="fill:#2E353A;" d="M328.476,194.497c-0.057-0.011-0.112-0.035-0.158-0.07c-0.143-0.116-0.165-0.326-0.049-0.469
					c0.001-0.002,0.003-0.003,0.004-0.005c0.779-1.004,1.998-1.566,3.267-1.506c0.18,0.026,0.309,0.188,0.293,0.37
					c-0.02,0.18-0.18,0.31-0.36,0.295c-1.049-0.033-2.049,0.44-2.69,1.271C328.707,194.472,328.591,194.515,328.476,194.497z"/>
				<g>
					<path style="fill:#2E353A;" d="M339.273,196.995c0.063,0.677-0.249,1.26-0.699,1.305c-0.45,0.045-0.853-0.474-0.91-1.162
						c-0.057-0.688,0.249-1.26,0.69-1.303C338.796,195.792,339.208,196.309,339.273,196.995z"/>
					<path style="fill:#2E353A;" d="M331.572,197.695c0.063,0.677-0.249,1.26-0.69,1.303c-0.441,0.042-0.853-0.474-0.919-1.16
						s0.249-1.26,0.69-1.303C331.095,196.493,331.516,197.007,331.572,197.695z"/>
					<path style="fill:#2E353A;" d="M330.852,196.555l-1.677-0.32C329.176,196.235,330.134,197.431,330.852,196.555z"/>
					<path style="fill:#2E353A;" d="M338.553,195.854l-1.677-0.32C336.876,195.534,337.835,196.73,338.553,195.854z"/>
				</g>
				<g>
					<path style="fill:#263238;" d="M334.61,206.065c0,0,3.194,0.569,5.644-1.925c0,0,2.494,4.55-4.244,5.294
						C336.01,209.434,336.01,207.859,334.61,206.065z"/>
					<path style="fill:#FFFFFF;" d="M335.213,206.116l0.491,1.042c0,0,3.172-0.007,4.862-2.186
						c-0.133-0.497-0.312-0.833-0.312-0.833C338.453,205.973,336.254,206.151,335.213,206.116z"/>
					<path style="fill:#DE5753;" d="M336.465,209.362c3.306-0.486,4.162-1.956,4.23-3.219
						C337.44,206.995,336.651,208.626,336.465,209.362z"/>
				</g>
				<path style="fill:#263238;" d="M337.89,186.705c0,0-1.514,3.412-6.055,4.2c-4.54,0.788-2.926,12.633-2.926,12.633
					s-9.809-23.92,11.548-22.214L337.89,186.705z"/>
				<path style="fill:#263238;" d="M340.989,181.781c-1.501-0.339-2.992,0.677-3.181,2.204c-0.246,1.989,0.172,4.502,3.399,5.541
					c5.709,1.837,5.184,7.875,5.184,7.875l0.984-4.482c0,0,0.328,6.397,3.544,5.636c3.216-0.761,3.544-6.798,3.544-6.798
					l-5.321-8.137L340.989,181.781z"/>
				<g>
					<path style="fill:#407BFF;" d="M337.376,221.772c0.326-0.124,0.659,0.161,0.581,0.502c-0.379,1.647-0.702,5.226,3.644,5.226
						c4.28,0,8.258-3.547,9.93-5.262c0.527-0.54,1.321-0.711,2.021-0.43l1.135,0.455c0.511,0.205,0.719,0.814,0.435,1.286
						c-1.929,3.205-8.851,13.406-14.441,5.133c0,0-3.247,5.032-5.25,0.525c-0.943-2.122-0.757-4.104-0.455-5.352
						c0.195-0.807,0.771-1.463,1.547-1.758L337.376,221.772z"/>
					<path style="opacity:0.6;fill:#FFFFFF;" d="M337.376,221.772c0.326-0.124,0.659,0.161,0.581,0.502
						c-0.379,1.647-0.702,5.226,3.644,5.226c4.28,0,8.258-3.547,9.93-5.262c0.527-0.54,1.321-0.711,2.021-0.43l1.135,0.455
						c0.511,0.205,0.719,0.814,0.435,1.286c-1.929,3.205-8.851,13.406-14.441,5.133c0,0-3.247,5.032-5.25,0.525
						c-0.943-2.122-0.757-4.104-0.455-5.352c0.195-0.807,0.771-1.463,1.547-1.758L337.376,221.772z"/>
				</g>
				<g>
					<g>
						<g>
							<path style="fill:#263238;" d="M317.815,227.816c0.569-0.376,1.335-0.221,1.711,0.348c0.376,0.569,0.221,1.335-0.348,1.712
								c-0.413,0.273-17.672,11.697-18.085,11.97c-0.569,0.376-1.335,0.221-1.711-0.348c-0.377-0.569-0.221-1.335,0.348-1.712
								C300.087,239.549,317.458,228.052,317.815,227.816z"/>
							<path style="opacity:0.6;fill:#FFFFFF;" d="M317.815,227.816c0.569-0.376,1.335-0.221,1.711,0.348
								c0.376,0.569,0.221,1.335-0.348,1.712c-0.413,0.273-17.672,11.697-18.085,11.97c-0.569,0.376-1.335,0.221-1.711-0.348
								c-0.377-0.569-0.221-1.335,0.348-1.712C300.087,239.549,317.458,228.052,317.815,227.816z"/>
						</g>
						<g>
							<path style="fill:#263238;" d="M299.73,239.786c-0.369,0.245-1.024,1.302-1.437,2.014c-0.162,0.279,0.065,0.622,0.385,0.582
								c0.816-0.102,2.046-0.291,2.415-0.536c0.569-0.376,0.725-1.143,0.348-1.712S300.299,239.409,299.73,239.786z"/>
							<path style="opacity:0.8;fill:#FFFFFF;" d="M299.73,239.786c-0.369,0.245-1.024,1.302-1.437,2.014
								c-0.162,0.279,0.065,0.622,0.385,0.582c0.816-0.102,2.046-0.291,2.415-0.536c0.569-0.376,0.725-1.143,0.348-1.712
								S300.299,239.409,299.73,239.786z"/>
						</g>
					</g>
					<path style="fill:#EBB376;" d="M324.707,247.783l-7.888-5.53l-1.787-7.578c-0.35-1.484-1.513-2.64-3-2.981l0,0
						c-1.96-0.449-3.949,0.626-4.646,2.512l-0.607,1.642c-0.164,0.444-0.248,0.913-0.248,1.387v1.392
						c0,0.998,0.373,1.96,1.046,2.697l1.078,1.181c0.29,0.317,0.629,0.586,1.004,0.796l4.678,2.611l7.393,7.38L324.707,247.783z"/>
					<g>
						<path style="fill:#407BFF;" d="M365.057,225.363c0.832-2.153,3.712-2.753,5.167-0.96c1.667,2.053,2.622,6.038-0.224,13.763
							c-5.692,15.451-14.75,27.588-26.101,27.588c-13.456,0-27.081-15.588-27.081-15.588l4.717-5.555c0,0,13.678,9.27,22.796,9.27
							C349.541,253.882,357.95,243.759,365.057,225.363z"/>
						<path style="opacity:0.2;fill:#FFFFFF;" d="M365.057,225.363c0.832-2.153,3.712-2.753,5.167-0.96
							c1.667,2.053,2.622,6.038-0.224,13.763c-5.692,15.451-14.75,27.588-26.101,27.588c-13.456,0-27.081-15.588-27.081-15.588
							l4.717-5.555c0,0,13.678,9.27,22.796,9.27C349.541,253.882,357.95,243.759,365.057,225.363z"/>
					</g>
					<g>
						<path style="fill:#407BFF;" d="M315.636,249.563l5.326-6.424c0.185-0.224,0.513-0.265,0.748-0.093l2.282,1.667
							c0.256,0.187,0.301,0.551,0.099,0.795l-5.984,7.213c-0.236,0.284-0.678,0.26-0.882-0.048l-1.623-2.457
							C315.467,250.015,315.481,249.749,315.636,249.563z"/>
						<path style="opacity:0.6;fill:#FFFFFF;" d="M315.636,249.563l5.326-6.424c0.185-0.224,0.513-0.265,0.748-0.093l2.282,1.667
							c0.256,0.187,0.301,0.551,0.099,0.795l-5.984,7.213c-0.236,0.284-0.678,0.26-0.882-0.048l-1.623-2.457
							C315.467,250.015,315.481,249.749,315.636,249.563z"/>
					</g>
				</g>
				<path style="fill:#263238;" d="M340.197,181.236h-1.866v0.076c7.047,0.728,12.543,6.682,12.543,13.922h3.32
					C354.194,187.503,347.927,181.236,340.197,181.236z"/>
				<g>
					<path style="opacity:0.6;fill:#FFFFFF;" d="M340.197,181.236h-1.866v0.076c7.047,0.728,12.543,6.682,12.543,13.922h3.32
						C354.194,187.503,347.927,181.236,340.197,181.236z"/>
					<ellipse style="fill:#407BFF;" cx="352.576" cy="200.075" rx="4.542" ry="6.068"/>
					<g>
						<path style="fill:#263238;" d="M357.64,200.075c0,2.712-0.825,3.985-2.983,3.985c-2.158,0-2.983-1.273-2.983-3.985
							s0.825-3.985,2.983-3.985C356.815,196.09,357.64,197.364,357.64,200.075z"/>
						<path style="opacity:0.5;fill:#FFFFFF;" d="M357.64,200.075c0,2.712-0.825,3.985-2.983,3.985
							c-2.158,0-2.983-1.273-2.983-3.985s0.825-3.985,2.983-3.985C356.815,196.09,357.64,197.364,357.64,200.075z"/>
						<ellipse style="fill:#263238;" cx="355.298" cy="200.075" rx="2.703" ry="3.611"/>
						<ellipse style="opacity:0.7;fill:#FFFFFF;" cx="355.298" cy="200.075" rx="2.703" ry="3.611"/>
					</g>
				</g>
			</g>
		</g>
	</g>
</g>
<g id="Desk">
	<g>
		<g>
			<g>
				<polygon style="fill:#263238;" points="170.082,410.967 165.288,410.967 163.188,285.667 172.182,285.667 				"/>
				<polygon style="opacity:0.7;fill:#FFFFFF;" points="170.082,410.967 165.288,410.967 163.188,285.667 172.182,285.667 				"/>
			</g>
			<g>
				<polygon style="fill:#263238;" points="222.985,410.967 218.191,410.967 216.091,285.667 225.085,285.667 				"/>
				<polygon style="opacity:0.7;fill:#FFFFFF;" points="222.985,410.967 218.191,410.967 216.091,285.667 225.085,285.667 				"/>
			</g>
			<g>
				<rect x="167.685" y="283.567" style="fill:#263238;" width="90.441" height="9.8"/>
				<rect x="167.685" y="283.567" style="opacity:0.5;fill:#FFFFFF;" width="90.441" height="9.8"/>
			</g>
			<g>
				<rect x="258.126" y="283.567" style="fill:#263238;" width="53.037" height="9.8"/>
				<rect x="258.126" y="283.567" style="opacity:0.5;fill:#FFFFFF;" width="53.037" height="9.8"/>
			</g>
			<g>
				<polygon style="fill:#263238;" points="313.426,410.967 308.632,410.967 306.532,285.667 315.526,285.667 				"/>
				<polygon style="opacity:0.7;fill:#FFFFFF;" points="313.426,410.967 308.632,410.967 306.532,285.667 315.526,285.667 				"/>
			</g>
			<path style="fill:#263238;" d="M318.364,285.667h-70.627c-1.463,0-2.648-1.186-2.648-2.648v-3.103
				c0-1.463,1.186-2.648,2.648-2.648h70.627c1.463,0,2.648,1.186,2.648,2.648v3.103
				C321.012,284.482,319.826,285.667,318.364,285.667z"/>
			<g>
				<path style="fill:#263238;" d="M254.257,285.667h-95.87c-1.463,0-2.648-1.186-2.648-2.648v-3.103
					c0-1.463,1.186-2.648,2.648-2.648h95.87c1.463,0,2.649,1.186,2.649,2.648v3.103C256.906,284.482,255.72,285.667,254.257,285.667
					z"/>
				<path style="opacity:0.2;fill:#FFFFFF;" d="M254.257,285.667h-95.87c-1.463,0-2.648-1.186-2.648-2.648v-3.103
					c0-1.463,1.186-2.648,2.648-2.648h95.87c1.463,0,2.649,1.186,2.649,2.648v3.103C256.906,284.482,255.72,285.667,254.257,285.667
					z"/>
			</g>
			<g>
				<polygon style="fill:#263238;" points="260.522,410.967 255.729,410.967 253.629,285.667 262.622,285.667 				"/>
				<polygon style="opacity:0.7;fill:#FFFFFF;" points="260.522,410.967 255.729,410.967 253.629,285.667 262.622,285.667 				"/>
			</g>
		</g>
		<g>
			<path style="fill:#407BFF;" d="M258.038,277.282c-0.773,0-1.4-0.627-1.4-1.4c0-0.773,0.627-1.4,1.4-1.4h38.15
				c0.773,0,1.4,0.627,1.4,1.4c0,0.773-0.627,1.4-1.4,1.4H258.038z"/>
			<path style="fill:#407BFF;" d="M261.277,274.86l-5.078-36.136c-0.187-1.329-1.416-2.407-2.745-2.407h-4.865v40.95h10.621
				C260.538,277.267,261.464,276.19,261.277,274.86z"/>
			<g>
				<path style="fill:#407BFF;" d="M257.109,277.267h-43.136c-1.329,0-2.558-1.078-2.745-2.407l-5.079-36.136
					c-0.187-1.329,0.739-2.407,2.069-2.407h43.136c1.329,0,2.558,1.078,2.745,2.407l5.078,36.136
					C259.364,276.19,258.438,277.267,257.109,277.267z"/>
				<path style="opacity:0.7;fill:#FFFFFF;" d="M257.109,277.267h-43.136c-1.329,0-2.558-1.078-2.745-2.407l-5.079-36.136
					c-0.187-1.329,0.739-2.407,2.069-2.407h43.136c1.329,0,2.558,1.078,2.745,2.407l5.078,36.136
					C259.364,276.19,258.438,277.267,257.109,277.267z"/>
			</g>
			<path style="opacity:0.7;fill:#FFFFFF;" d="M234.772,255.808c0.171,1.215-0.676,2.2-1.891,2.2c-1.215,0-2.339-0.985-2.509-2.2
				c-0.171-1.215,0.676-2.2,1.891-2.2C233.478,253.608,234.602,254.593,234.772,255.808z"/>
		</g>
		<g>
			<path style="fill:#407BFF;" d="M197.75,256.46h-16.662c-1.129,0-1.982,1.024-1.777,2.135l0.026,0.143
				c-0.765-0.197-1.609-0.189-2.515,0.082c-3.007,0.899-3.091,3.58-2.192,6.587c0.899,3.007,2.441,5.202,5.448,4.303
				c0.521-0.156,0.974-0.376,1.37-0.643c0.603,1.428,1.579,2.643,2.804,3.53v2.207h10.331v-2.207
				c1.694-1.227,2.925-3.077,3.328-5.259l1.614-8.742C199.732,257.485,198.879,256.46,197.75,256.46z M179.661,267.801
				c-1.976,0.591-2.989-0.851-3.58-2.827c-0.591-1.976-0.536-3.737,1.44-4.328c0.823-0.246,1.564-0.153,2.2,0.165l1.166,6.317
				C180.563,267.421,180.156,267.653,179.661,267.801z"/>
			<path style="opacity:0.5;fill:#FFFFFF;" d="M197.75,256.46h-16.662c-1.129,0-1.982,1.024-1.777,2.135l0.026,0.143
				c-0.765-0.197-1.609-0.189-2.515,0.082c-3.007,0.899-3.091,3.58-2.192,6.587c0.899,3.007,2.441,5.202,5.448,4.303
				c0.521-0.156,0.974-0.376,1.37-0.643c0.603,1.428,1.579,2.643,2.804,3.53v2.207h10.331v-2.207
				c1.694-1.227,2.925-3.077,3.328-5.259l1.614-8.742C199.732,257.485,198.879,256.46,197.75,256.46z M179.661,267.801
				c-1.976,0.591-2.989-0.851-3.58-2.827c-0.591-1.976-0.536-3.737,1.44-4.328c0.823-0.246,1.564-0.153,2.2,0.165l1.166,6.317
				C180.563,267.421,180.156,267.653,179.661,267.801z"/>
			<g>
				<path style="fill:#407BFF;" d="M195.028,277.386h-11.216c-0.685,0-1.359-0.172-1.96-0.501l-3.799-2.078
					c-0.695-0.38-0.425-1.436,0.367-1.436h22c0.792,0,1.062,1.056,0.367,1.436l-3.799,2.078
					C196.386,277.214,195.712,277.386,195.028,277.386z"/>
				<path style="opacity:0.4;fill:#FFFFFF;" d="M195.028,277.386h-11.216c-0.685,0-1.359-0.172-1.96-0.501l-3.799-2.078
					c-0.695-0.38-0.425-1.436,0.367-1.436h22c0.792,0,1.062,1.056,0.367,1.436l-3.799,2.078
					C196.386,277.214,195.712,277.386,195.028,277.386z"/>
			</g>
		</g>
	</g>
</g>
<g id="Concall">
	<g>
		<g>
			<path style="fill:#407BFF;" d="M269.562,200.359h-66.141c-2.896,0-5.243-2.347-5.243-5.243v-52.584
				c0-2.896,2.348-5.243,5.243-5.243h66.141c2.896,0,5.243,2.347,5.243,5.243v52.584
				C274.806,198.012,272.458,200.359,269.562,200.359z"/>
			<path style="opacity:0.6;fill:#FFFFFF;" d="M269.562,200.359h-66.141c-2.896,0-5.243-2.347-5.243-5.243v-52.584
				c0-2.896,2.348-5.243,5.243-5.243h66.141c2.896,0,5.243,2.347,5.243,5.243v52.584
				C274.806,198.012,272.458,200.359,269.562,200.359z"/>
		</g>
		<g>
			<path style="fill:#2E353A;" d="M233.832,149.126c0,0-5.697-2.917-8.599,3.5c-2.901,6.417-10.235,2.559-7.151,15.571
				c3.083,13.012-10.083,8.595-3.75,18.095c6.333,9.5,16,2.989,21.298,3.167c5.298,0.177,15.536,3.5,18.036-2.417
				c2.5-5.917-1.75-7.909-1.833-11.121c-0.083-3.212,5.24-10.899,0.918-14.379C244.806,155.144,247.915,145.543,233.832,149.126z"/>
			<ellipse style="fill:#B97964;" cx="235.63" cy="166.325" rx="12.417" ry="15.887"/>
			<path style="fill:#A24E3F;" d="M236.469,167.055c0.303,1.461,0.805,2.874,1.493,4.198c-0.692,0.342-1.5,0.36-2.206,0.049
				L236.469,167.055z"/>
			<g>
				<path style="fill:#2E353A;" d="M230.996,167.102c-0.038,0.581,0.233,1.071,0.613,1.094c0.38,0.023,0.713-0.422,0.752-1.003
					c0.038-0.581-0.236-1.063-0.615-1.087S231.032,166.529,230.996,167.102z"/>
				<path style="fill:#2E353A;" d="M228.932,165.068c-0.058-0.004-0.115-0.021-0.167-0.048c-0.136-0.127-0.15-0.337-0.033-0.482
					c0.702-0.839,1.764-1.291,2.855-1.215c0.187,0.025,0.318,0.197,0.293,0.385c-0.025,0.187-0.197,0.318-0.385,0.293l0,0
					c-0.864-0.051-1.701,0.315-2.249,0.985C229.163,165.066,229.044,165.097,228.932,165.068z"/>
			</g>
			<g>
				<path style="fill:#2E353A;" d="M241.367,167.102c0.038,0.581-0.233,1.071-0.613,1.094c-0.38,0.023-0.713-0.422-0.751-1.003
					c-0.038-0.581,0.236-1.063,0.615-1.087S241.331,166.529,241.367,167.102z"/>
				<path style="fill:#2E353A;" d="M243.43,165.068c0.058-0.004,0.115-0.021,0.167-0.048c0.136-0.127,0.15-0.337,0.033-0.482
					c-0.702-0.839-1.764-1.291-2.855-1.215c-0.187,0.025-0.318,0.197-0.293,0.385c0.025,0.187,0.198,0.318,0.385,0.293l0,0
					c0.864-0.051,1.701,0.315,2.249,0.985C243.199,165.066,243.318,165.097,243.43,165.068z"/>
			</g>
			<path style="fill:#2E353A;" d="M236.479,175.921c0.348,0.001,0.697-0.029,1.04-0.091c0.099-0.016,0.166-0.11,0.15-0.209
				c0-0.002-0.001-0.004-0.001-0.006c-0.017-0.097-0.109-0.163-0.206-0.149c-1.536,0.301-3.124-0.143-4.283-1.196
				c-0.068-0.075-0.185-0.081-0.26-0.012c-0.075,0.068-0.081,0.185-0.012,0.26C233.87,175.431,235.151,175.934,236.479,175.921z"/>
			<path style="fill:#577AFB;" d="M234.468,192.609c6.845,0,12.35-2.692,14.311-3.789c-2.715-0.5-4.824-0.461-4.824-0.461
				s-3.167,2.059-8.549,2.059c-5.382,0-8.284-2.059-8.284-2.059c-1.304,0-2.481,0.079-3.567,0.212
				C225.12,190.122,228.553,192.609,234.468,192.609z"/>
			<path style="fill:#B97964;" d="M242.536,190.141l2.27-1.44c-1.108-0.135-2.385-0.693-3.225-1.321
				c-2.933-2.193-1.344-7.785-1.344-7.785h-8.406c-0.204,3.354-0.109,6.315-1.965,7.704c-1.959,1.465-3.872,1.401-3.872,1.401
				l2.974,1.785c-0.192,0.422,2.024,1.215,2.024,1.215l8.352,0.464l1.6-1.015C240.944,191.151,243.037,190.766,242.536,190.141z"/>
			<path style="fill:#407BFF;" d="M227.12,188.359c0,0,2.902,2.059,8.284,2.059c5.383,0,8.549-2.059,8.549-2.059
				s16.667-0.333,16.667,12h-48.167C212.454,200.359,210.287,188.359,227.12,188.359z"/>
			<path style="fill:#2E353A;" d="M222.529,163.316c0,0,0.553,5.341,2.303,5.169c1.75-0.171,0.518-8.421,3.821-9.046
				c3.304-0.625,5.179-1.313,5.304-3.375s5.25-0.625,4.563-3.25c0,0,2.5,0.875,3.938,3.938s1.834,1.5,2.886,3.625
				c1.052,2.125,1.972,8.415,3.677,3.821c1.704-4.594-2.625-8.446-2.625-8.446l-3.813-4.5l-3.563-0.813l-3.046-0.625h-4.09
				l-2.739,0.625l-3.911,4.188l-2.401,4.125L222.529,163.316z"/>
			<path style="fill:#B97964;" d="M224.634,167.12c0.938,1.824,0.755,3.913-0.407,4.666c-1.162,0.754-2.864-0.114-3.802-1.938
				c-0.938-1.824-0.755-3.913,0.407-4.666C221.994,164.429,223.696,165.297,224.634,167.12z"/>
			<path style="fill:#B97964;" d="M245.942,167.12c-0.938,1.824-0.756,3.913,0.407,4.666c1.162,0.754,2.864-0.114,3.802-1.938
				c0.938-1.824,0.755-3.913-0.407-4.666S246.88,165.297,245.942,167.12z"/>
			<path style="fill:#FFFFFF;" d="M222.846,168.514c-0.493,0.078-0.82,0.603-0.73,1.173l0.519,3.274
				c0.028,0.18,0.197,0.302,0.376,0.273l0.038-0.006c0.179-0.028,0.302-0.197,0.273-0.376l-0.36-2.273
				c0.069,0.008,0.14,0.009,0.211-0.002c0.493-0.078,0.82-0.603,0.73-1.173S223.34,168.436,222.846,168.514z"/>
			<path style="fill:#FFFFFF;" d="M248.318,168.514c0.493,0.078,0.821,0.603,0.73,1.173l-0.518,3.274
				c-0.029,0.18-0.197,0.302-0.376,0.273l-0.038-0.006c-0.179-0.028-0.302-0.197-0.273-0.376l0.36-2.273
				c-0.069,0.008-0.14,0.009-0.211-0.002c-0.493-0.078-0.82-0.603-0.73-1.173C247.351,168.834,247.824,168.436,248.318,168.514z"/>
		</g>
	</g>
	<g>
		<circle style="fill:#407BFF;" cx="273.792" cy="137.28" r="9.007"/>
		<g>
			<path style="fill:#FFFFFF;" d="M268.605,142.468L268.605,142.468c-0.293-0.293-0.293-0.768,0-1.061l9.314-9.314
				c0.293-0.293,0.768-0.293,1.061,0l0,0c0.293,0.293,0.293,0.768,0,1.061l-9.315,9.314
				C269.372,142.761,268.897,142.761,268.605,142.468z"/>
		</g>
		<g>
			<path style="fill:#FFFFFF;" d="M276.763,142.654h-2.629v-1.963c1.572-0.171,2.799-1.506,2.799-3.122v-1.058
				c0-0.094-0.077-0.171-0.171-0.171h-0.427c-0.094,0-0.171,0.077-0.171,0.171c0,0.094,0.077,0.171,0.171,0.171h0.256v0.887
				c0,1.544-1.256,2.799-2.799,2.799s-2.8-1.256-2.8-2.799v-0.887h0.257c0.094,0,0.171-0.077,0.171-0.171
				c0-0.094-0.076-0.171-0.171-0.171h-0.428c-0.094,0-0.171,0.077-0.171,0.171v1.058c0,1.617,1.228,2.951,2.799,3.122v1.963h-2.628
				c-0.189,0-0.342,0.153-0.342,0.342v0.342h6.625v-0.342C277.104,142.807,276.951,142.654,276.763,142.654z"/>
			<path style="fill:#FFFFFF;" d="M271.677,137.569c0,1.168,0.947,2.116,2.116,2.116c1.168,0,2.115-0.947,2.115-2.116
				c0,0,0-3.78,0-4.231c0-1.168-0.947-2.115-2.115-2.115c-1.169,0-2.116,0.947-2.116,2.115
				C271.677,133.85,271.677,137.569,271.677,137.569z"/>
		</g>
	</g>
</g>
<g id="Video">
	<g>
		<path style="fill:#407BFF;" d="M180.388,245.754H81.353c-2.896,0-5.243-2.348-5.243-5.243v-73.947
			c0-2.896,2.347-5.243,5.243-5.243h99.034c2.896,0,5.243,2.348,5.243,5.243v73.947
			C185.631,243.407,183.283,245.754,180.388,245.754z"/>
		<g>
			<path style="fill:#263238;" d="M124.22,168.421c0,0-5.082-1.55-6.207,9.35c-1.125,10.9-8.938,14.525-0.656,18.525
				c8.281,4,16.284-0.375,19.533,0c3.249,0.375,9.124-1.75,8.749-7.125s-9.938-21.037-9.938-21.037L124.22,168.421z"/>
			<g>
				<path style="fill:#263238;" d="M165.628,216.4c-1.787,5.981-6.926,21.896-10.854,21.354c-4.833-0.667-8.167-18-8.167-18
					l1.333-21c0,0,5.333,0,7.667,26.833l5.641-12.139L165.628,216.4z"/>
				<path style="fill:#EEC1BB;" d="M161.732,213.628l2.026-4.361l3.14-2.569l1.705-1.832c0.887-0.953,2.287-1.225,3.466-0.675
					l1.013,0.473c1.194,0.557,1.885,1.828,1.704,3.133l-0.528,3.805l-8.5,2.75c0,0-0.234,0.851-0.646,2.229L161.732,213.628z"/>
				<g>
					<polygon style="fill:#263238;" points="160.928,212.097 166.886,216.18 166.428,218.437 159.844,213.763 					"/>
					<polygon style="opacity:0.2;fill:#FFFFFF;" points="160.928,212.097 166.886,216.18 166.428,218.437 159.844,213.763 					"/>
				</g>
			</g>
			<g>
				<path style="fill:#263238;" d="M115.524,245.754c0,0-0.917-23.833-8.083-45c0,0,18.333-5,40.5-2c0,0,3.333,15.167-0.667,47
					H115.524z"/>
				<path style="opacity:0.2;fill:#FFFFFF;" d="M115.524,245.754c0,0-0.917-23.833-8.083-45c0,0,18.333-5,40.5-2
					c0,0,3.333,15.167-0.667,47H115.524z"/>
			</g>
			<g>
				<path style="fill:#EEC1BB;" d="M120.576,232.429c1.213-0.458,1.925-0.752,1.925-0.752l5.375-2.5l3.966-3.801
					c1.058-1.014,0.939-2.74-0.25-3.598l-2.497-1.804c-1.076-0.777-2.583-0.508-3.323,0.594l-4.521,6.733
					c0,0-1.029,0.289-2.625,0.691L120.576,232.429z"/>
				<path style="fill:#263238;" d="M120.683,233.047c-5.862,2.214-23.418,8.263-28.7,3.498c-6.375-5.75,15.458-35.792,15.458-35.792
					c5.833,6.583,3.726,13.391,3.726,13.391s-11.226,11.834-10.184,14.775c0.923,2.606,12.465,0.023,17.75-1.309L120.683,233.047z"
					/>
				<g>
					<polygon style="fill:#263238;" points="119.441,226.888 121.941,233.221 119.941,234.388 117.357,226.888 					"/>
					<polygon style="opacity:0.2;fill:#FFFFFF;" points="119.441,226.888 121.941,233.221 119.941,234.388 117.357,226.888 					"/>
				</g>
			</g>
			<path style="fill:#EEC1BB;" d="M134.671,197.806c-0.633-0.007-1.241,0.003-1.86,0.006c-0.373-1.695-0.023-4.038,0.51-5.649
				l-7.301-7.447c0.371,3.402,0.531,9.845-1.064,13.383c-0.977,0.07-1.925,0.149-2.838,0.236c0.462,1.345,2.226,4.751,8.281,4.751
				C136.509,203.087,135.336,199.26,134.671,197.806z"/>
			<path style="opacity:0.1;" d="M127.389,187.454l-0.842,2.244c0,0,1.979,4.17,6.147,5.679c0.085-1.139,0.324-2.294,0.627-3.213
				l-4.844-4.94L127.389,187.454z"/>
			<path style="fill:#EEC1BB;" d="M122.304,179.145c1.766,6.748,2.365,9.643,6.503,12.468c6.226,4.253,14.126,0.614,14.418-6.526
				c0.261-6.426-2.664-16.375-9.881-17.78c-5.151-1.03-10.162,2.311-11.193,7.462C121.862,176.22,121.914,177.718,122.304,179.145z"
				/>
			<path style="fill:#EEC1BB;" d="M121.752,184.865c0.628,1.194,1.705,2.088,2.994,2.487c1.712,0.514,2.603-1.006,2.157-2.641
				c-0.399-1.466-1.773-3.508-3.508-3.309c-1.259,0.184-2.13,1.353-1.946,2.612C121.492,184.315,121.595,184.604,121.752,184.865z"
				/>
			<path style="fill:#D58745;" d="M137.835,179.061c0.744,1.172,1.645,2.237,2.679,3.163c-0.49,0.525-1.187,0.806-1.904,0.768
				L137.835,179.061z"/>
			<path style="fill:#2E353A;" d="M131.83,176.535c-0.048-0.002-0.096-0.015-0.138-0.038c-0.131-0.079-0.173-0.248-0.095-0.379
				c0.001-0.002,0.002-0.003,0.003-0.005c0.521-0.915,1.454-1.52,2.503-1.62c0.151,0,0.276,0.118,0.284,0.269
				c0.004,0.15-0.111,0.276-0.261,0.284c-0.864,0.097-1.629,0.602-2.057,1.359C132.017,176.486,131.926,176.536,131.83,176.535z"/>
			<path style="fill:#2E353A;" d="M138.454,173.651c-0.034-0.034-0.06-0.076-0.075-0.122c-0.043-0.147,0.041-0.3,0.188-0.343
				c0.002-0.001,0.003-0.001,0.005-0.001c1.004-0.318,2.1-0.127,2.937,0.512c0.111,0.102,0.122,0.274,0.026,0.39
				c-0.099,0.113-0.269,0.127-0.385,0.031c-0.7-0.516-1.605-0.665-2.433-0.401C138.624,173.742,138.525,173.717,138.454,173.651z"/>
			<g>
				<path style="fill:#2E353A;" d="M133.728,178.915c0.107,0.553,0.491,0.944,0.86,0.875c0.368-0.069,0.568-0.576,0.453-1.136
					c-0.115-0.56-0.491-0.944-0.852-0.875C133.828,177.848,133.62,178.354,133.728,178.915z"/>
				<path style="fill:#2E353A;" d="M140.016,177.679c0.107,0.553,0.491,0.944,0.852,0.875c0.361-0.069,0.568-0.576,0.461-1.136
					c-0.107-0.56-0.491-0.944-0.852-0.875C140.115,176.612,139.9,177.118,140.016,177.679z"/>
				<path style="fill:#2E353A;" d="M140.323,176.604l1.259-0.645C141.582,175.959,141.098,177.134,140.323,176.604z"/>
				<path style="fill:#2E353A;" d="M134.035,177.84l1.259-0.645C135.294,177.195,134.811,178.37,134.035,177.84z"/>
			</g>
			<path style="fill:#2E353A;" d="M139.224,184.769c0,0-1.248-0.148-4.659,0.144c0.505,0.892,1.34,1.579,3.089,1.418
				C139.402,186.17,139.224,184.769,139.224,184.769z"/>
			<path style="fill:#DE5753;" d="M136.757,185.674c0.666-0.095,1.346,0.003,1.958,0.283c-0.31,0.224-0.679,0.353-1.061,0.37
				c-0.665,0.096-1.343-0.002-1.953-0.283C136.009,185.82,136.376,185.691,136.757,185.674z"/>
			<path style="fill:#FFFFFF;" d="M139.063,184.756c-0.048,0.247-0.235,0.443-0.479,0.505c-1.013,0.086-2.031,0.095-3.045,0.026
				c-0.32,0.01-0.626-0.134-0.822-0.387C136.161,184.752,137.613,184.704,139.063,184.756z"/>
			<path style="fill:#263238;" d="M124.22,184.421c0,0,2.984-2.523,2.326-7.887s6.135-0.364,7.489-4.864s7.229,4.625,10.104-0.875
				s-10.259-6.832-11.573-5.25C131.252,167.128,113.302,164.547,124.22,184.421z"/>
		</g>
		<g>
			<path style="fill:#FFFFFF;" d="M176.794,238.328H84.947c-1.317,0-2.384-1.067-2.384-2.384v-4.517
				c0-1.316,1.067-2.384,2.384-2.384h91.846c1.316,0,2.384,1.067,2.384,2.384v4.517C179.177,237.261,178.11,238.328,176.794,238.328
				z"/>
			<g>
				<polygon style="fill:#263238;" points="94.658,236.005 94.658,231.367 97.556,233.686 				"/>
				<g>
					<g>
						<polygon style="fill:#263238;" points="102.234,235.053 103.496,233.708 102.234,232.363 						"/>
						<polygon style="fill:#263238;" points="103.496,232.407 103.496,233.708 103.496,235.01 104.071,235.01 104.071,232.407 
													"/>
					</g>
					<g>
						<polygon style="fill:#263238;" points="89.979,232.363 88.718,233.708 89.979,235.053 						"/>
						<polygon style="fill:#263238;" points="88.718,235.01 88.718,233.708 88.718,232.407 88.143,232.407 88.143,235.01 						"/>
					</g>
				</g>
			</g>
			<rect x="112.917" y="233.029" style="fill:#263238;" width="61.769" height="1.359"/>
			<rect x="139.984" y="230.638" style="fill:#407BFF;" width="2.201" height="6.077"/>
		</g>
	</g>
</g>
<g id="Wifi_Icon">
	<g>
		<g>
			
				<ellipse transform="matrix(0.2298 -0.9732 0.9732 0.2298 89.5414 421.4428)" style="fill:#407BFF;" cx="311.029" cy="154.151" rx="23.406" ry="23.406"/>
			
				<ellipse transform="matrix(0.2298 -0.9732 0.9732 0.2298 89.5414 421.4428)" style="opacity:0.7;fill:#FFFFFF;" cx="311.029" cy="154.151" rx="23.406" ry="23.406"/>
		</g>
		<g style="opacity:0.8;">
			<g>
				<path style="fill:#407BFF;" d="M306.301,162.096c2.766-2.551,6.685-2.556,9.456,0c1.276,1.177,3.19-0.728,1.909-1.909
					c-3.866-3.566-9.409-3.565-13.274,0C303.111,161.368,305.025,163.273,306.301,162.096L306.301,162.096z"/>
			</g>
			<g>
				<path style="fill:#407BFF;" d="M310.113,165.908c0.539-0.497,1.292-0.498,1.832,0c1.276,1.177,3.19-0.728,1.909-1.909
					c-1.643-1.516-4.006-1.516-5.65,0C306.924,165.18,308.837,167.085,310.113,165.908L310.113,165.908z"/>
			</g>
			<g>
				<path style="fill:#407BFF;" d="M301.283,157.078c5.7-5.257,13.782-5.266,19.492,0c1.276,1.177,3.19-0.728,1.909-1.909
					c-6.793-6.265-16.518-6.264-23.31,0C298.093,156.35,300.007,158.255,301.283,157.078L301.283,157.078z"/>
			</g>
			<g>
				<path style="fill:#407BFF;" d="M296.706,152.502c8.214-7.736,20.431-7.737,28.645,0c1.264,1.191,3.177-0.715,1.909-1.909
					c-9.3-8.759-23.166-8.757-32.464,0C293.529,151.786,295.441,153.693,296.706,152.502L296.706,152.502z"/>
			</g>
		</g>
	</g>
</g>
<g id="Webcam_Icon">
	<g>
		<g>
			<circle style="fill:#407BFF;" cx="124.596" cy="277.267" r="24.083"/>
			<circle style="opacity:0.7;fill:#FFFFFF;" cx="124.596" cy="277.267" r="24.083"/>
		</g>
		<polygon style="fill:#407BFF;" points="119.357,269.605 119.357,275.819 111.883,270.346 111.883,284.189 119.357,278.715 
			119.357,284.93 137.309,284.93 137.309,269.605 		"/>
	</g>
</g>
<g id="Mic_Icon">
	<g>
		<g>
			
				<ellipse transform="matrix(0.2298 -0.9732 0.9732 0.2298 121.659 519.85)" style="fill:#407BFF;" cx="389.259" cy="183.064" rx="20.838" ry="20.838"/>
			
				<ellipse transform="matrix(0.2298 -0.9732 0.9732 0.2298 121.659 519.85)" style="opacity:0.7;fill:#FFFFFF;" cx="389.259" cy="183.064" rx="20.838" ry="20.838"/>
		</g>
		<g>
			<path style="fill:#407BFF;" d="M395.321,194.031h-5.364v-4.006c3.208-0.349,5.713-3.073,5.713-6.373v-2.159
				c0-0.193-0.156-0.349-0.349-0.349h-0.872c-0.193,0-0.349,0.156-0.349,0.349c0,0.193,0.156,0.349,0.349,0.349h0.523v1.81
				c0,3.15-2.563,5.713-5.713,5.713c-3.15,0-5.713-2.563-5.713-5.713v-1.81h0.523c0.193,0,0.349-0.156,0.349-0.349
				c0-0.193-0.156-0.349-0.349-0.349h-0.872c-0.193,0-0.349,0.156-0.349,0.349v2.159c0,3.299,2.505,6.024,5.713,6.373v4.006h-5.364
				c-0.385,0-0.698,0.312-0.698,0.698v0.698h13.52v-0.698C396.019,194.344,395.707,194.031,395.321,194.031z"/>
			<path style="fill:#407BFF;" d="M389.259,187.971c2.384,0,4.318-1.933,4.318-4.318h-8.635
				C384.941,186.038,386.874,187.971,389.259,187.971z"/>
			<path style="fill:#407BFF;" d="M393.577,175.018c0-2.384-1.933-4.318-4.318-4.318c-2.385,0-4.318,1.933-4.318,4.318
				c0,1.045,0,5.785,0,7.861h8.635C393.577,180.815,393.577,175.939,393.577,175.018z"/>
		</g>
	</g>
</g>
</svg>
